# File created by Blade
# Date/Time:  Wed Apr 08 17:12:12 2015
# Frame Rate: 120.000 fps
#------------------------------------------------------
:FULLY-SPECIFIED
:DEGREES
1590
root 5.673661 36.510485 -0.326027 227.774352 -84.720849 -200.413053
Spine -28.651020 -0.232760 -8.822976
Head 14.070498 12.638885 5.509555
LeftShoulder -6.929692 12.110587 29.697799
LeftArm 13.937774 -36.151633 -29.817077
LeftForeArm 20.541725 -0.000000 13.037962
LeftHand -10.381668 -0.000000 -14.863343
LeftHandThumb1 -26.253704 0.000000 33.147579
RightShoulder -25.148644 -42.383144 -11.751849
RightArm 50.792260 48.045966 50.613241
RightForeArm 7.642584 -0.000000 3.570760
RightHand -1.262530 -0.000000 7.415712
RightHandThumb1 -24.326973 -0.000000 -32.862282
LeftUpLeg -29.175215 13.733838 -5.724449
LeftLeg 12.093717 -0.000000 -0.000000
LeftFoot -12.448335 12.032534 -19.551697
LeftToeBase 3.537090 -0.000000 -0.000000
RightUpLeg -28.272070 -5.822406 -6.356218
RightLeg 10.567937 -0.000000 -0.000000
RightFoot -10.976710 -7.711784 20.322876
RightToeBase 8.940442 -0.000000 -0.000000
1591
root 5.661930 36.510423 -0.343657 227.593698 -84.663660 -200.242048
Spine -28.703602 -0.201808 -8.749995
Head 14.079232 12.701364 5.488367
LeftShoulder -6.935799 11.996662 29.767630
LeftArm 13.892127 -36.199714 -29.729328
LeftForeArm 20.648082 -0.000000 12.648081
LeftHand -10.368577 -0.000000 -14.721729
LeftHandThumb1 -26.253704 0.000000 33.147579
RightShoulder -25.083427 -42.319144 -11.910762
RightArm 50.729424 48.207258 50.468924
RightForeArm 7.623875 0.000000 3.337169
RightHand -1.267439 -0.000000 7.489503
RightHandThumb1 -24.326973 -0.000000 -32.862282
LeftUpLeg -29.146136 13.768057 -5.715881
LeftLeg 12.088148 -0.000000 -0.000000
LeftFoot -12.349466 12.128628 -19.431049
LeftToeBase 3.641528 -0.000000 -0.000000
RightUpLeg -28.253071 -5.751627 -6.366675
RightLeg 10.572991 -0.000000 -0.000000
RightFoot -11.016175 -7.719108 20.303287
RightToeBase 8.977078 -0.000000 -0.000000
1592
root 5.649255 36.509161 -0.358664 227.409007 -84.601281 -200.076047
Spine -28.754473 -0.159188 -8.678496
Head 14.107388 12.745335 5.434385
LeftShoulder -6.887680 11.827493 29.878963
LeftArm 13.739116 -36.169529 -29.637782
LeftForeArm 20.687597 -0.000000 12.249566
LeftHand -10.372140 -0.000000 -14.667739
LeftHandThumb1 -26.253704 0.000000 33.147579
RightShoulder -24.965890 -42.223436 -12.131436
RightArm 50.576997 48.328318 50.277910
RightForeArm 7.624627 -0.000000 3.063921
RightHand -1.269611 -0.000000 7.603717
RightHandThumb1 -24.326973 -0.000000 -32.862282
LeftUpLeg -29.097119 13.784949 -5.705264
LeftLeg 12.066343 -0.000000 -0.000000
LeftFoot -12.252065 12.237980 -19.311785
LeftToeBase 3.854100 -0.000000 -0.000000
RightUpLeg -28.231037 -5.688198 -6.383545
RightLeg 10.590178 -0.000000 -0.000000
RightFoot -11.061484 -7.710276 20.267008
RightToeBase 9.010406 -0.000000 -0.000000
1593
root 5.637203 36.507973 -0.372279 227.315300 -84.548696 -200.000061
Spine -28.799864 -0.122384 -8.603570
Head 14.117788 12.782747 5.380242
LeftShoulder -6.876648 11.698542 29.964130
LeftArm 13.714801 -36.149059 -29.601897
LeftForeArm 20.669283 -0.000000 11.733706
LeftHand -10.316558 -0.000000 -14.276948
LeftHandThumb1 -26.253704 0.000000 33.147579
RightShoulder -24.882677 -42.167338 -12.299861
RightArm 50.466056 48.459387 50.096879
RightForeArm 7.602865 -0.000000 2.787294
RightHand -1.298290 -0.000000 7.640028
RightHandThumb1 -24.326973 -0.000000 -32.862282
LeftUpLeg -29.056532 13.790200 -5.696446
LeftLeg 12.059698 -0.000000 -0.000000
LeftFoot -12.155504 12.334306 -19.204132
LeftToeBase 4.193440 -0.000000 -0.000000
RightUpLeg -28.209025 -5.643120 -6.397807
RightLeg 10.609803 -0.000000 -0.000000
RightFoot -11.109607 -7.699091 20.227930
RightToeBase 9.025843 -0.000000 -0.000000
1594
root 5.622571 36.506569 -0.384364 227.113089 -84.472141 -199.821867
Spine -28.840854 -0.053870 -8.556231
Head 14.130317 12.856635 5.353184
LeftShoulder -6.918261 11.719178 29.997682
LeftArm 13.863097 -36.173387 -29.600762
LeftForeArm 20.671724 -0.000000 11.235776
LeftHand -10.394832 0.000000 -14.266828
LeftHandThumb1 -26.253704 0.000000 33.147579
RightShoulder -24.783459 -42.087697 -12.470610
RightArm 50.306085 48.596615 49.928758
RightForeArm 7.529204 -0.000000 2.546520
RightHand -1.376284 0.000000 7.734819
RightHandThumb1 -24.326973 -0.000000 -32.862282
LeftUpLeg -29.003460 13.835861 -5.707445
LeftLeg 12.041011 -0.000000 -0.000000
LeftFoot -12.065944 12.430980 -19.094417
LeftToeBase 4.596877 -0.000000 -0.000000
RightUpLeg -28.187683 -5.593281 -6.417053
RightLeg 10.635490 -0.000000 -0.000000
RightFoot -11.146634 -7.676449 20.196529
RightToeBase 9.017730 -0.000000 -0.000000
1595
root 5.609589 36.504767 -0.394922 227.034991 -84.400203 -199.753145
Spine -28.897545 0.005173 -8.505491
Head 14.142992 12.890595 5.277484
LeftShoulder -6.903867 11.656549 30.058444
LeftArm 13.899339 -36.209236 -29.593597
LeftForeArm 20.687980 -0.000000 10.703405
LeftHand -10.322976 -0.000000 -14.200467
LeftHandThumb1 -26.253704 0.000000 33.147579
RightShoulder -24.711748 -42.031502 -12.627792
RightArm 50.238157 48.755950 49.842645
RightForeArm 7.376007 0.000000 2.292376
RightHand -1.403095 -0.000000 7.868615
RightHandThumb1 -24.326973 -0.000000 -32.862282
LeftUpLeg -28.967008 13.853924 -5.716619
LeftLeg 12.023785 -0.000000 -0.000000
LeftFoot -11.985026 12.523955 -18.994515
LeftToeBase 4.968707 -0.000000 -0.000000
RightUpLeg -28.191018 -5.544017 -6.446517
RightLeg 10.679600 -0.000000 -0.000000
RightFoot -11.197065 -7.648004 20.194282
RightToeBase 9.063442 -0.000000 -0.000000
1596
root 5.596367 36.503215 -0.404086 227.013740 -84.329465 -199.735514
Spine -28.962467 0.060594 -8.455414
Head 14.152715 12.919809 5.215267
LeftShoulder -6.853303 11.549034 30.140264
LeftArm 13.842270 -36.200653 -29.568850
LeftForeArm 20.876992 -0.000000 10.206946
LeftHand -10.294597 -0.000000 -14.285341
LeftHandThumb1 -26.253704 0.000000 33.147579
RightShoulder -24.640343 -41.979335 -12.783591
RightArm 50.214027 48.923534 49.808762
RightForeArm 7.149629 -0.000000 2.029895
RightHand -1.465875 -0.000000 7.931298
RightHandThumb1 -24.326973 -0.000000 -32.862282
LeftUpLeg -28.917057 13.847526 -5.724478
LeftLeg 11.977054 -0.000000 -0.000000
LeftFoot -11.909203 12.629291 -18.951982
LeftToeBase 5.184169 -0.000000 -0.000000
RightUpLeg -28.198652 -5.469919 -6.494665
RightLeg 10.725539 -0.000000 -0.000000
RightFoot -11.261266 -7.647465 20.191872
RightToeBase 9.110623 -0.000000 -0.000000
1597
root 5.583854 36.502236 -0.410965 226.987669 -84.265991 -199.709891
Spine -29.018217 0.092835 -8.393239
Head 14.156834 12.979471 5.149131
LeftShoulder -6.855050 11.493357 30.219355
LeftArm 13.859341 -36.237209 -29.625823
LeftForeArm 21.281993 -0.000000 9.738113
LeftHand -10.223591 0.000000 -14.225815
LeftHandThumb1 -26.253704 0.000000 33.147579
RightShoulder -24.559281 -41.926477 -12.910522
RightArm 50.209924 49.110696 49.773226
RightForeArm 6.925024 -0.000000 1.766654
RightHand -1.551955 0.000000 7.960712
RightHandThumb1 -24.326973 -0.000000 -32.862282
LeftUpLeg -28.850180 13.809345 -5.715147
LeftLeg 11.899710 -0.000000 -0.000000
LeftFoot -11.846467 12.726692 -18.929187
LeftToeBase 5.502399 -0.000000 -0.000000
RightUpLeg -28.206130 -5.412829 -6.534451
RightLeg 10.763311 -0.000000 -0.000000
RightFoot -11.299607 -7.644874 20.176789
RightToeBase 9.053915 -0.000000 -0.000000
1598
root 5.570068 36.500479 -0.417894 226.913573 -84.190399 -199.630908
Spine -29.094327 0.139219 -8.335179
Head 14.190795 13.035053 5.091972
LeftShoulder -6.806032 11.389855 30.291551
LeftArm 13.752279 -36.210209 -29.570016
LeftForeArm 21.686270 -0.000000 9.312058
LeftHand -10.219480 0.000000 -14.434038
LeftHandThumb1 -26.253704 0.000000 33.147579
RightShoulder -24.454990 -41.872972 -13.090599
RightArm 50.216736 49.286833 49.822881
RightForeArm 6.603035 -0.000000 1.534485
RightHand -1.664190 -0.000000 8.005919
RightHandThumb1 -24.326973 -0.000000 -32.862282
LeftUpLeg -28.812015 13.812817 -5.730023
LeftLeg 11.867092 -0.000000 -0.000000
LeftFoot -11.811980 12.800700 -18.898268
LeftToeBase 5.817545 -0.000000 -0.000000
RightUpLeg -28.215074 -5.336097 -6.582960
RightLeg 10.794896 -0.000000 -0.000000
RightFoot -11.357925 -7.648058 20.175465
RightToeBase 9.127432 -0.000000 -0.000000
1599
root 5.557082 36.499552 -0.424347 226.942104 -84.136373 -199.654452
Spine -29.166644 0.168281 -8.273336
Head 14.225287 13.066694 5.043464
LeftShoulder -6.800712 11.439469 30.289767
LeftArm 13.849332 -36.285641 -29.561594
LeftForeArm 22.274309 0.000000 8.808326
LeftHand -10.322734 -0.000000 -14.526376
LeftHandThumb1 -26.253704 0.000000 33.147579
RightShoulder -24.364923 -41.825816 -13.231753
RightArm 50.190785 49.440204 49.791488
RightForeArm 6.365479 -0.000000 1.280298
RightHand -1.691439 -0.000000 8.112308
RightHandThumb1 -24.326973 -0.000000 -32.862282
LeftUpLeg -28.785626 13.805121 -5.744194
LeftLeg 11.848244 -0.000000 -0.000000
LeftFoot -11.776026 12.870247 -18.863862
LeftToeBase 6.084501 -0.000000 -0.000000
RightUpLeg -28.215481 -5.264861 -6.630671
RightLeg 10.815961 -0.000000 -0.000000
RightFoot -11.405064 -7.660198 20.201528
RightToeBase 9.089454 -0.000000 -0.000000
1600
root 5.543247 36.498276 -0.428902 226.921669 -84.085167 -199.635179
Spine -29.229635 0.196827 -8.196188
Head 14.253521 13.117673 4.973436
LeftShoulder -6.805898 11.455766 30.269611
LeftArm 13.896089 -36.282695 -29.506058
LeftForeArm 22.898954 -0.000000 8.345878
LeftHand -10.267813 -0.000000 -14.666599
LeftHandThumb1 -26.253704 0.000000 33.147579
RightShoulder -24.309639 -41.799405 -13.345714
RightArm 50.234514 49.584785 49.797544
RightForeArm 6.166201 -0.000000 1.039671
RightHand -1.763917 -0.000000 8.118823
RightHandThumb1 -24.326973 -0.000000 -32.862282
LeftUpLeg -28.749856 13.802323 -5.756511
LeftLeg 11.825326 -0.000000 -0.000000
LeftFoot -11.760645 12.931981 -18.849924
LeftToeBase 6.327460 -0.000000 -0.000000
RightUpLeg -28.206914 -5.208264 -6.670091
RightLeg 10.835171 -0.000000 -0.000000
RightFoot -11.456408 -7.666430 20.199115
RightToeBase 9.128370 -0.000000 -0.000000
